<svg width="148" height="48" viewBox="0 0 148 48" fill="none" xmlns="http://www.w3.org/2000/svg">
<g clip-path="url(#clip0_1304_4082)">
<path d="M41.6478 9.60526H38.6311C38.4511 9.60526 38.3039 9.45804 38.3039 9.2781V6.26174C38.3039 5.3588 37.571 4.62598 36.668 4.62598H33.6906C32.7875 4.62598 32.0546 5.3588 32.0546 6.26174V9.2781C32.0546 9.45804 31.9074 9.60526 31.7274 9.60526H28.7108C27.8077 9.60526 27.0748 10.3381 27.0748 11.241V14.2181C27.0748 15.1211 27.8077 15.8539 28.7108 15.8539H31.7274C31.9074 15.8539 32.0546 16.0011 32.0546 16.181V19.1974C32.0546 20.1003 32.7875 20.8332 33.6906 20.8332H36.668C37.571 20.8332 38.3039 20.1003 38.3039 19.1974V16.181C38.3039 16.0011 38.4511 15.8539 38.6311 15.8539H41.6478C42.5508 15.8539 43.2837 15.1211 43.2837 14.2181V11.241C43.2837 10.3381 42.5508 9.60526 41.6478 9.60526Z" fill="#F66490"/>
<path d="M147.833 41.6172L134.883 2.25082C134.441 0.909487 133.188 0 131.774 0H124.926C123.539 0 122.306 0.8735 121.841 2.17884L109.643 36.6412C109.545 36.916 109.166 36.9357 109.041 36.6739L104.762 27.7655C104.706 27.651 104.726 27.5136 104.808 27.4155C105.338 26.7841 105.822 26.1069 106.277 25.4068C107.85 22.9793 108.636 20.012 108.636 16.5082C108.636 13.0044 107.847 10.0927 106.277 7.64231C104.703 5.19193 102.589 3.32715 99.9391 2.04798C97.2856 0.76554 94.2984 0.12759 90.9709 0.12759H77.2519C76.4372 0.12759 75.6945 0.428571 75.1219 0.919302C74.3563 1.51799 73.8622 2.44711 73.8622 3.494V27.121C73.8622 30.0425 73.198 32.313 71.8729 33.9291C70.5478 35.5485 68.5356 36.3566 65.8396 36.3566C63.1436 36.3566 61.187 35.5485 59.839 33.9291C58.4909 32.3097 57.8169 30.0425 57.8169 27.121V3.50055C57.8169 1.69466 56.3511 0.229008 54.5451 0.229008H50.1673C48.3612 0.229008 46.8954 1.69466 46.8954 3.50055V25.2824C46.2999 24.5431 45.3904 24.0622 44.3499 24.0622H40.0147C38.4409 24.0622 37.1191 25.1908 36.7984 26.7317C35.506 32.9902 29.7541 37.6227 23.0107 37.1549C16.5357 36.7099 11.2909 31.4656 10.8459 24.9913C10.4009 18.5169 15.011 12.4973 21.2701 11.205C22.8111 10.8877 23.9399 9.56598 23.9399 7.98909V3.65431C23.9399 1.64231 22.1404 0.104689 20.1511 0.422028C8.5425 2.27045 -0.288292 12.4613 0.00617713 24.6543C0.310462 37.2595 10.5253 47.5714 23.1285 47.9869C34.5768 48.3664 44.2943 40.7012 47.0754 30.2159C47.3633 33.1309 47.9948 35.6794 48.9829 37.8451C50.3767 40.9008 52.4772 43.1941 55.2878 44.7219C58.0951 46.2497 61.6123 47.0153 65.8396 47.0153C70.0668 47.0153 73.6365 46.2497 76.4241 44.7219C79.2117 43.1941 81.3123 40.904 82.729 37.8451C84.1457 34.7895 84.8524 30.9913 84.8524 26.4504V11.0414C84.8524 10.8615 84.9997 10.7143 85.1796 10.7143H90.3656C92.6591 10.7143 94.4227 11.2083 95.6595 12.1963C96.8962 13.1843 97.5048 14.2541 97.5048 16.1418C97.5048 18.0294 97.6651 19.6456 97.0075 20.699C96.2713 21.8768 95.2897 22.6292 94.3213 23.2017C92.7933 24.0851 92.453 26.5125 93.3397 28.4885L100.79 44.0905C101.323 45.2028 102.449 45.9095 103.682 45.9095H114.95C116.351 45.9095 117.597 45.0164 118.049 43.6914L127.963 14.5649C128.064 14.2639 128.493 14.2704 128.584 14.5747L137.549 43.6031C137.971 44.9738 139.241 45.9095 140.674 45.9095H144.728C146.956 45.9095 148.533 43.7306 147.836 41.6172H147.833Z" fill="#26ABA2"/>
</g>
<defs>
<clipPath id="clip0_1304_4082">
<rect width="148" height="48" fill="white"/>
</clipPath>
</defs>
</svg>
